<mxfile host="Electron" modified="2023-04-29T16:55:00.976Z" agent="Mozilla/5.0 (Windows NT 10.0; Win64; x64) AppleWebKit/537.36 (KHTML, like Gecko) draw.io/21.2.1 Chrome/112.0.5615.87 Electron/24.1.2 Safari/537.36" etag="SnLGwWDN7CJis-6IkTII" version="21.2.1" type="device">
  <diagram name="Страница 1" id="dyMilijcUcRMk84C2dbY">
    <mxGraphModel dx="1036" dy="698" grid="1" gridSize="10" guides="1" tooltips="1" connect="1" arrows="1" fold="1" page="1" pageScale="1" pageWidth="827" pageHeight="1169" math="0" shadow="0">
      <root>
        <mxCell id="0" />
        <mxCell id="1" parent="0" />
        <mxCell id="HZYFfzHu2ykX9LMDXFeo-16" value="" style="edgeStyle=orthogonalEdgeStyle;rounded=0;orthogonalLoop=1;jettySize=auto;html=1;" edge="1" parent="1" source="HZYFfzHu2ykX9LMDXFeo-1" target="HZYFfzHu2ykX9LMDXFeo-7">
          <mxGeometry relative="1" as="geometry" />
        </mxCell>
        <mxCell id="HZYFfzHu2ykX9LMDXFeo-1" value="newArray []&lt;br&gt;count=0&lt;br&gt;index=0" style="rounded=0;whiteSpace=wrap;html=1;" vertex="1" parent="1">
          <mxGeometry x="200" y="170" width="250" height="50" as="geometry" />
        </mxCell>
        <mxCell id="HZYFfzHu2ykX9LMDXFeo-14" value="" style="edgeStyle=orthogonalEdgeStyle;rounded=0;orthogonalLoop=1;jettySize=auto;html=1;" edge="1" parent="1" source="HZYFfzHu2ykX9LMDXFeo-2" target="HZYFfzHu2ykX9LMDXFeo-6">
          <mxGeometry relative="1" as="geometry" />
        </mxCell>
        <mxCell id="HZYFfzHu2ykX9LMDXFeo-2" value="&lt;font style=&quot;font-size: 13px;&quot;&gt;begin&lt;/font&gt;" style="ellipse;whiteSpace=wrap;html=1;" vertex="1" parent="1">
          <mxGeometry x="265" width="120" height="50" as="geometry" />
        </mxCell>
        <mxCell id="HZYFfzHu2ykX9LMDXFeo-3" value="end" style="ellipse;whiteSpace=wrap;html=1;" vertex="1" parent="1">
          <mxGeometry x="680" y="285" width="120" height="50" as="geometry" />
        </mxCell>
        <mxCell id="HZYFfzHu2ykX9LMDXFeo-15" value="" style="edgeStyle=orthogonalEdgeStyle;rounded=0;orthogonalLoop=1;jettySize=auto;html=1;" edge="1" parent="1" source="HZYFfzHu2ykX9LMDXFeo-6" target="HZYFfzHu2ykX9LMDXFeo-1">
          <mxGeometry relative="1" as="geometry" />
        </mxCell>
        <mxCell id="HZYFfzHu2ykX9LMDXFeo-6" value="&lt;font style=&quot;font-size: 13px;&quot;&gt;array [“Hello”, “2”, “world”, “:-)”]&lt;/font&gt;" style="shape=parallelogram;perimeter=parallelogramPerimeter;whiteSpace=wrap;html=1;fixedSize=1;" vertex="1" parent="1">
          <mxGeometry x="220" y="80" width="210" height="40" as="geometry" />
        </mxCell>
        <mxCell id="HZYFfzHu2ykX9LMDXFeo-17" value="No" style="edgeStyle=orthogonalEdgeStyle;rounded=0;orthogonalLoop=1;jettySize=auto;html=1;" edge="1" parent="1" source="HZYFfzHu2ykX9LMDXFeo-7" target="HZYFfzHu2ykX9LMDXFeo-9">
          <mxGeometry relative="1" as="geometry" />
        </mxCell>
        <mxCell id="HZYFfzHu2ykX9LMDXFeo-18" value="Yes" style="edgeStyle=orthogonalEdgeStyle;rounded=0;orthogonalLoop=1;jettySize=auto;html=1;" edge="1" parent="1" source="HZYFfzHu2ykX9LMDXFeo-7" target="HZYFfzHu2ykX9LMDXFeo-11">
          <mxGeometry relative="1" as="geometry" />
        </mxCell>
        <mxCell id="HZYFfzHu2ykX9LMDXFeo-7" value="index &amp;lt; array.Length" style="rhombus;whiteSpace=wrap;html=1;" vertex="1" parent="1">
          <mxGeometry x="250" y="270" width="150" height="80" as="geometry" />
        </mxCell>
        <mxCell id="HZYFfzHu2ykX9LMDXFeo-19" value="" style="edgeStyle=orthogonalEdgeStyle;rounded=0;orthogonalLoop=1;jettySize=auto;html=1;" edge="1" parent="1" source="HZYFfzHu2ykX9LMDXFeo-9" target="HZYFfzHu2ykX9LMDXFeo-3">
          <mxGeometry relative="1" as="geometry" />
        </mxCell>
        <mxCell id="HZYFfzHu2ykX9LMDXFeo-9" value="print [newArray]" style="shape=parallelogram;perimeter=parallelogramPerimeter;whiteSpace=wrap;html=1;fixedSize=1;" vertex="1" parent="1">
          <mxGeometry x="480" y="280" width="120" height="60" as="geometry" />
        </mxCell>
        <mxCell id="HZYFfzHu2ykX9LMDXFeo-20" value="Yes" style="edgeStyle=orthogonalEdgeStyle;rounded=0;orthogonalLoop=1;jettySize=auto;html=1;" edge="1" parent="1" source="HZYFfzHu2ykX9LMDXFeo-11" target="HZYFfzHu2ykX9LMDXFeo-13">
          <mxGeometry relative="1" as="geometry" />
        </mxCell>
        <mxCell id="HZYFfzHu2ykX9LMDXFeo-21" style="edgeStyle=orthogonalEdgeStyle;rounded=0;orthogonalLoop=1;jettySize=auto;html=1;entryX=1;entryY=0.75;entryDx=0;entryDy=0;" edge="1" parent="1" source="HZYFfzHu2ykX9LMDXFeo-11" target="HZYFfzHu2ykX9LMDXFeo-12">
          <mxGeometry relative="1" as="geometry">
            <Array as="points">
              <mxPoint x="500" y="440" />
              <mxPoint x="500" y="715" />
            </Array>
          </mxGeometry>
        </mxCell>
        <mxCell id="HZYFfzHu2ykX9LMDXFeo-22" value="No" style="edgeLabel;html=1;align=center;verticalAlign=middle;resizable=0;points=[];" vertex="1" connectable="0" parent="HZYFfzHu2ykX9LMDXFeo-21">
          <mxGeometry x="-0.1991" y="1" relative="1" as="geometry">
            <mxPoint as="offset" />
          </mxGeometry>
        </mxCell>
        <mxCell id="HZYFfzHu2ykX9LMDXFeo-11" value="array[index].Length&amp;lt;=3" style="rhombus;whiteSpace=wrap;html=1;" vertex="1" parent="1">
          <mxGeometry x="225" y="400" width="200" height="80" as="geometry" />
        </mxCell>
        <mxCell id="HZYFfzHu2ykX9LMDXFeo-24" style="edgeStyle=orthogonalEdgeStyle;rounded=0;orthogonalLoop=1;jettySize=auto;html=1;entryX=0;entryY=0.5;entryDx=0;entryDy=0;" edge="1" parent="1" source="HZYFfzHu2ykX9LMDXFeo-12" target="HZYFfzHu2ykX9LMDXFeo-7">
          <mxGeometry relative="1" as="geometry">
            <Array as="points">
              <mxPoint x="160" y="700" />
              <mxPoint x="160" y="310" />
            </Array>
          </mxGeometry>
        </mxCell>
        <mxCell id="HZYFfzHu2ykX9LMDXFeo-12" value="index=index+1" style="rounded=0;whiteSpace=wrap;html=1;" vertex="1" parent="1">
          <mxGeometry x="265" y="670" width="120" height="60" as="geometry" />
        </mxCell>
        <mxCell id="HZYFfzHu2ykX9LMDXFeo-23" value="" style="edgeStyle=orthogonalEdgeStyle;rounded=0;orthogonalLoop=1;jettySize=auto;html=1;" edge="1" parent="1" source="HZYFfzHu2ykX9LMDXFeo-13" target="HZYFfzHu2ykX9LMDXFeo-12">
          <mxGeometry relative="1" as="geometry" />
        </mxCell>
        <mxCell id="HZYFfzHu2ykX9LMDXFeo-13" value="newArray[count] = array [index]&lt;br&gt;count = count+1" style="rounded=0;whiteSpace=wrap;html=1;" vertex="1" parent="1">
          <mxGeometry x="215" y="525" width="220" height="60" as="geometry" />
        </mxCell>
      </root>
    </mxGraphModel>
  </diagram>
</mxfile>
